<svg viewBox="0 0 64 64" xmlns="http://www.w3.org/2000/svg"><circle cx="37.5" cy="22.5" fill="#e5efef" r="21.5"/><path d="m29.861 10.947a12.316 12.316 0 1 1 -3.694-3.868" fill="#ffce56" stroke="#4c241d" stroke-linecap="round" stroke-linejoin="round" stroke-width="2"/><path d="m21.327 15.913a16.929 16.929 0 0 0 -2.434 4.67s4.095-.8 4.924 2.515c0 0 4.976-2.488 7.464 1.659 0 0 6.634-2.488 9.122 2.488 0 0 3.317-3.318 7.463.829 0 0 .554-1.1 2.951-.892a1.132 1.132 0 0 0 1.2-1.148 17 17 0 0 0 -17.005-17.034h-.056a16.179 16.179 0 0 0 -7.329 1.907l-.652.336a16.155 16.155 0 0 0 -5.648 4.67z" fill="#fff" stroke="#4c241d" stroke-linecap="round" stroke-linejoin="round" stroke-width="2"/><path d="m38.752 9.418a16.935 16.935 0 0 0 -1.786-.3 21.285 21.285 0 0 0 -13.149 13.982s4.976-2.488 7.463 1.659a22.036 22.036 0 0 1 7.472-15.341z" fill="#fc8c29" stroke="#4c241d" stroke-linecap="round" stroke-linejoin="round" stroke-width="2"/><path d="m62.455 39a5.069 5.069 0 0 0 -4.859.433 6.136 6.136 0 0 1 -5.782 0 6.151 6.151 0 0 0 -5.4-.187l-1.372.619a6.156 6.156 0 0 1 -5.026 0l-1.371-.619a6.151 6.151 0 0 0 -5.4.187 6.136 6.136 0 0 1 -5.782 0 6.151 6.151 0 0 0 -5.4-.187l-1.371.619a6.156 6.156 0 0 1 -5.026 0l-1.372-.619a6.151 6.151 0 0 0 -5.4.187 6.136 6.136 0 0 1 -5.782 0 6.034 6.034 0 0 0 -2.224-.687v13.254h61.567z" fill="#9dc1e4"/><g stroke="#4c241d" stroke-linecap="round" stroke-linejoin="round" stroke-width="2"><path d="m43.106 11.047a16.856 16.856 0 0 0 -2.126-.967c.971 3.6 2.539 11.555-.577 17.164 0 0 3.317-3.317 7.464.83a21.331 21.331 0 0 0 -4.761-17.027z" fill="#fc8c29"/><path d="m28.366 52.639 7.634-27.639" fill="none"/><path d="m11.8 55h-10.8a8 8 0 0 1 8-8h46a8 8 0 0 1 8 8h-43.591" fill="#ffe8dc"/><path d="m63 39.246a6.151 6.151 0 0 0 -5.4.187 6.136 6.136 0 0 1 -5.782 0 6.151 6.151 0 0 0 -5.4-.187l-1.372.619a6.156 6.156 0 0 1 -5.026 0l-1.371-.619a6.151 6.151 0 0 0 -5.4.187 6.136 6.136 0 0 1 -5.782 0 6.151 6.151 0 0 0 -5.4-.187l-1.371.619a6.156 6.156 0 0 1 -5.026 0l-1.372-.619a6.151 6.151 0 0 0 -5.4.187 6.136 6.136 0 0 1 -5.782 0 6.034 6.034 0 0 0 -2.224-.687" fill="none"/></g></svg>