<svg viewBox="0 0 400 300" xmlns="http://www.w3.org/2000/svg"><path d="m30.4 35.71h339.19v161.37h-339.19z" fill="#f2f2f2"/><path d="m369.6 66.34v99.46a150.22 150.22 0 0 1 -16.26 8c-29.94 12.56-62.65 16.55-94.82 20.82l-18.43 2.46c-35.72 4.71-71.63 8.83-107.46 5.91a232.43 232.43 0 0 1 -36.87-5.91c-23.76-5.82-46.39-15.69-65.36-30.56v-52c13.65 4.11 27.65 6.25 41.17 2.47 18.24-5.1 34.24-20.7 53-18.2 11.62 1.54 22.65 10.07 34 7 6.9-1.84 11.91-7.55 17.32-12.21a69.41 69.41 0 0 1 65-13.4c6.53 2.07 12.75 5.11 19.4 6.74 21.22 5.22 42.84-4.43 63.68-11a232.85 232.85 0 0 1 45.63-9.58z" fill="#fff" opacity=".44"/><path d="m30.4 134.07s50.19 5.8 77-13.49 29.4-1.09 59.12-4.34 22.8-26.79 59.51-23.48 43.6 24.78 78.63 7.22 64.94-21.69 64.94-21.69v186h-339.2z" fill="#e6e6e6"/><path d="m148.14 168.11h36.22v78.79h-36.22z" fill="#24285b"/><g fill="#fff" opacity=".2"><path d="m154.57 168.11h4.25v78.79h-4.25z" opacity=".44"/><path d="m164.13 168.11h4.25v78.79h-4.25z" opacity=".44"/><path d="m173.68 168.11h4.25v78.79h-4.25z" opacity=".44"/></g><path d="m312.75 168.11h36.22v78.79h-36.22z" fill="#24285b"/><g fill="#fff" opacity=".44"><path d="m312.75 234.96h36.22v5.4h-36.22z" opacity=".44"/><path d="m312.75 222.9h36.22v5.4h-36.22z" opacity=".44"/><path d="m312.75 210.84h36.22v5.4h-36.22z" opacity=".44"/><path d="m312.75 198.78h36.22v5.4h-36.22z" opacity=".44"/><path d="m312.75 186.71h36.22v5.4h-36.22z" opacity=".44"/><path d="m312.75 174.65h36.22v5.4h-36.22z" opacity=".44"/></g><path d="m119.2 137.19h-45.51l-32.17 32.17v45.51l32.17 32.17h45.51l32.18-32.17v-45.51z" opacity=".09"/><path d="m125 128.6h-45.51l-32.18 32.17v45.51l32.18 32.18h45.51l32.18-32.18v-45.51z" fill="#68e1fd"/><g fill="#fff"><path d="m47.31 160.77 54.94 22.76-22.76-54.93z" opacity=".44"/><path d="m47.31 206.28 54.94-22.75-22.76 54.93z" opacity=".44"/><path d="m102.25 183.53 22.75 54.93 32.18-32.18z" opacity=".44"/><path d="m102.25 183.53 54.93-22.76-32.18-32.17z" opacity=".44"/></g><path d="m291.86 131.78h-45.5l-32.18 32.18v45.51l32.18 32.18h45.5l32.18-32.18v-45.51z" opacity=".09"/><path d="m293.19 122.68h-45.5l-32.18 32.18v45.51l32.18 32.17h45.5l32.18-32.17v-45.51z" fill="#68e1fd"/><path d="m215.51 154.86 54.93 22.75-22.75-54.93z" fill="#fff" opacity=".44"/><path d="m215.51 200.37 54.93-22.76-22.75 54.93z" fill="#fff" opacity=".44"/><path d="m270.44 177.61 22.75 54.93 32.18-32.17z" fill="#fff" opacity=".44"/><path d="m270.44 177.61 54.93-22.75-32.18-32.18z" fill="#fff" opacity=".44"/><path d="m174.31 141.8-4.28-2.69-4.63 2 1.23-4.89-3.34-3.79 5.04-.35 2.57-4.34 1.89 4.69 4.92 1.1-3.87 3.24z" fill="#ffd200"/><path d="m338.59 126.71-4.97-.93-3.58 3.56-.65-5-4.49-2.31 4.56-2.16.81-4.99 3.47 3.67 4.98-.77-2.41 4.43z" fill="#ffd200"/><path d="m227.45 117.22-4.97-.92-3.57 3.56-.65-5.01-4.5-2.31 4.56-2.16.81-4.99 3.47 3.67 4.99-.77-2.42 4.43z" fill="#ffd200"/><path d="m87.79 94a2.46 2.46 0 0 0 -3.33-.87 39.94 39.94 0 0 1 -18.16 7.22 2.46 2.46 0 0 0 -1.71 3 2.52 2.52 0 0 0 3 1.71 43.09 43.09 0 0 0 19.33-7.72 2.51 2.51 0 0 0 .87-3.34z" fill="#fff" opacity=".44"/><path d="m203.23 66.83a2.5 2.5 0 0 0 -3-1.71 57 57 0 0 0 -29.49 13.61 2.44 2.44 0 1 0 3.45 3.45 52.46 52.46 0 0 1 27.34-12.35 2.45 2.45 0 0 0 1.7-3z" fill="#fff" opacity=".44"/><path d="m316.17 62.32c-11.32 5.83-23.55 12-36.67 10.37a2.46 2.46 0 0 0 -2.44 2.44 2.5 2.5 0 0 0 2.44 2.44c13.94 1.69 27.11-4.85 39.13-11 2.8-1.47.37-5.68-2.46-4.25z" fill="#fff" opacity=".44"/><path d="m350.47 52.45a2.48 2.48 0 0 0 -1.47-1.12l-.65-.09a2.41 2.41 0 0 0 -1.23.33 26.74 26.74 0 0 0 -7.44 4.85 2.45 2.45 0 0 0 0 3.45 2.48 2.48 0 0 0 3.44 0c.44-.4.89-.77 1.35-1.13a24.52 24.52 0 0 1 5.11-3 2.45 2.45 0 0 0 1.12-1.46 2.51 2.51 0 0 0 -.23-1.83z" fill="#fff" opacity=".44"/><path d="m213.82 235.44a2.73 2.73 0 0 0 -.73-1.13 3.87 3.87 0 0 0 -2.47-1l-.93.12a3.57 3.57 0 0 0 -1.55.9l-.55.71a3.55 3.55 0 0 0 -.47 1.77v.76a3.59 3.59 0 0 0 3.5 3.5l.93-.12a3.53 3.53 0 0 0 1.54-.9l.55-.71a3.56 3.56 0 0 0 .48-1.77v-.76a2.73 2.73 0 0 0 -.3-1.37z" opacity=".09"/><path d="m45.78 249.23a1.13 1.13 0 0 0 -.32-.48l-.3-.24a1.54 1.54 0 0 0 -.76-.2l-.39.05a1.47 1.47 0 0 0 -.67.39l-.76.76a1.11 1.11 0 0 0 -.31.49 1 1 0 0 0 -.13.57 1.06 1.06 0 0 0 .13.58 1.11 1.11 0 0 0 .31.49l.3.23a1.47 1.47 0 0 0 .76.2h.4a1.57 1.57 0 0 0 .66-.38l.76-.77a1.27 1.27 0 0 0 .32-.48 1.46 1.46 0 0 0 0-1.16z" opacity=".09"/><path d="m193.77 165.32a1 1 0 0 0 0 2 1 1 0 0 0 0-2z" opacity=".09"/><path d="m347.72 130.88c-3.21 0-3.22 5 0 5s3.28-5 0-5z" opacity=".09"/></svg>