<svg viewBox="0 0 400 300" xmlns="http://www.w3.org/2000/svg"><path d="m194.09 55.89a14.73 14.73 0 0 0 -10.22 1.44 10.15 10.15 0 0 0 -3.51 2.6c-1.51 1.9-1.84 4.46-2.85 6.67a11.84 11.84 0 0 1 -11.2 6.72 17.78 17.78 0 0 0 9.49 8.44 27.84 27.84 0 0 0 12.78 1.56 16.21 16.21 0 0 0 7.77-2.32c2.59-1.77 4.24-4.62 5.39-7.54 2.52-6.46-.34-15.59-7.65-17.57z" fill="#725858"/><path d="m185.4 84.47a26.93 26.93 0 0 1 -10-1.78 18.79 18.79 0 0 1 -10-8.93 1 1 0 0 1 .06-1 1 1 0 0 1 .9-.44 10.89 10.89 0 0 0 10.22-6.15 21.4 21.4 0 0 0 .87-2.38 14 14 0 0 1 2.11-4.5 11.15 11.15 0 0 1 3.85-2.87 15.69 15.69 0 0 1 10.92-1.51 12.15 12.15 0 0 1 7.67 6.48 15.63 15.63 0 0 1 .69 12.39c-1.48 3.76-3.36 6.38-5.75 8a17.51 17.51 0 0 1 -8.25 2.53q-1.69.16-3.29.16zm-17.4-10.17a17.24 17.24 0 0 0 8.16 6.53 26.67 26.67 0 0 0 12.32 1.5 15 15 0 0 0 7.3-2.2c2.05-1.39 3.69-3.71 5-7.08a13.58 13.58 0 0 0 -.62-10.76 10.17 10.17 0 0 0 -6.36-5.44 13.77 13.77 0 0 0 -9.52 1.37 9.11 9.11 0 0 0 -3.17 2.33 12.17 12.17 0 0 0 -1.77 3.87 23.79 23.79 0 0 1 -1 2.59 12.83 12.83 0 0 1 -10.34 7.29z" fill="#093f68"/><path d="m198.48 63.45a15.76 15.76 0 0 0 -5.21 8.36 10 10 0 0 0 2.6 9.23 2.28 2.28 0 0 0 2.69.59c2.4-.75 4.24-2.65 5.81-4.61a18.91 18.91 0 0 0 4-7.41c1.63-7.14-4.26-11.12-9.89-6.16z" fill="#68e1fd"/><path d="m197.51 82.82a3.24 3.24 0 0 1 -.86-.12 3.91 3.91 0 0 1 -1.47-.93 11.08 11.08 0 0 1 -2.89-10.17 16.77 16.77 0 0 1 5.53-8.9c2.89-2.55 6.14-3.17 8.7-1.66s3.7 4.93 2.82 8.79a20 20 0 0 1 -4.19 7.81c-1.48 1.85-3.53 4.09-6.29 5a4.62 4.62 0 0 1 -1.35.18zm6-20.58a6.91 6.91 0 0 0 -4.39 2 14.83 14.83 0 0 0 -4.87 7.76 9 9 0 0 0 2.3 8.3 1.94 1.94 0 0 0 .68.47 1.88 1.88 0 0 0 1-.1c2.23-.7 3.94-2.56 5.33-4.29a17.67 17.67 0 0 0 3.8-7c.68-3 0-5.52-1.9-6.62a3.81 3.81 0 0 0 -1.93-.52z" fill="#093f68"/><path d="m190.1 164.32c.56-.39 29.9 16.52 33.12 22.25s-21.07 39.3-21.07 39.3 10.17 6.26 7.65 8.06-21.72-2.51-25.39-3.91c4.41-9.39 19.54-37.87 19.54-37.87l-27-16.31z" fill="#ffc9b0"/><path d="m207.17 235.33c-6.69 0-20.58-3.41-23.11-4.37a1 1 0 0 1 -.57-.56 1 1 0 0 1 0-.8c3.94-8.41 16.58-32.3 19.11-37.08l-26.2-15.82a1 1 0 0 1 -.48-.77 1 1 0 0 1 .34-.84l13.16-11.52.09-.07a1.2 1.2 0 0 1 .89-.15c2.27.52 30.36 16.82 33.67 22.73 3.21 5.72-15.3 32.24-20.51 39.51 2.56 1.64 7.54 5.16 7.62 7.53a1.87 1.87 0 0 1 -.81 1.63 6.13 6.13 0 0 1 -3.2.58zm-21.38-5.87c8 2.71 22.34 4.43 23.43 3.66 0-.85-3.6-3.94-7.6-6.4a1 1 0 0 1 -.45-.66 1 1 0 0 1 .17-.78c9.93-13.73 23-34.66 21-38.23-2.76-4.91-28-19.87-32-21.61l-11.72 10.25 25.85 15.61a1 1 0 0 1 .36 1.32c-.14.28-14.18 26.7-19.04 36.84z" fill="#093f68"/><path d="m175.83 179.15 26.07 11.84 10.46-14.37-20.37-16.68z" fill="#093f68"/><path d="m201.9 192a1.06 1.06 0 0 1 -.42-.09l-26.06-11.84a1 1 0 0 1 -.56-.69 1 1 0 0 1 .21-.86l16.16-19.21a1 1 0 0 1 1.4-.13l20.37 16.67a1 1 0 0 1 .17 1.36l-10.45 14.37a1 1 0 0 1 -.82.42zm-24.45-13.2 24.12 11 9.43-13-18.87-15.46z" fill="#093f68"/><path d="m170.89 132.44-6.23 8.74 33.54 19.95 5.01-7.2z" fill="#ffc9b0"/><path d="m198.2 162.13a.94.94 0 0 1 -.51-.14l-33.54-20a1 1 0 0 1 -.47-.66 1 1 0 0 1 .16-.78l6.24-8.74a1 1 0 0 1 1.37-.25l32.31 21.48a1 1 0 0 1 .43.65 1 1 0 0 1 -.16.76l-5 7.2a1 1 0 0 1 -.83.48zm-32.1-21.26 31.81 18.93 3.9-5.61-30.67-20.38z" fill="#093f68"/><path d="m241.78 96s1.67 7.06-.06 7.06a12 12 0 0 1 -3.92-1" fill="#ffc9b0"/><path d="m241.72 104.05a13 13 0 0 1 -4.33-1.08 1 1 0 0 1 .82-1.83 11.81 11.81 0 0 0 3.23.9 18.26 18.26 0 0 0 -.63-5.83 1 1 0 1 1 1.94-.45c.44 1.83 1.33 6.26.2 7.69a1.56 1.56 0 0 1 -1.23.6z" fill="#093f68"/><path d="m200.57 113.07h9.43a0 0 0 0 1 0 0v5.44a4 4 0 0 1 -4 4h-1.41a4 4 0 0 1 -4-4v-5.44a0 0 0 0 1 -.02 0z" fill="#ffc9b0" transform="matrix(.93807046 .34644453 -.34644453 .93807046 53.53 -63.83)"/><path d="m205.7 123.72a5 5 0 0 1 -1.74-.31l-1.32-.49a5 5 0 0 1 -3-6.43l1.88-5.11a1 1 0 0 1 1.29-.59l8.84 3.27a1 1 0 0 1 .56.52 1 1 0 0 1 0 .76l-1.88 5.11a5 5 0 0 1 -2.61 2.81 4.93 4.93 0 0 1 -2.02.46zm-1-2.19a3 3 0 0 0 3.86-1.78l1.54-4.16-7-2.58-1.53 4.17a3 3 0 0 0 1.77 3.86z" fill="#093f68"/><path d="m210.8 110.65a9.4 9.4 0 0 1 -3.65-3.48c-.39-.62-.73-1.27-1.07-1.92a37.42 37.42 0 0 1 -3.52-8.18 31.48 31.48 0 0 1 -.68-8.28c.14-7.33 1.2-15 5.29-21 1.28-1.91 3-3.72 5.19-4.31 4.14-1.1 6.81 3.76 9.43 6.12 5.86 5.28 15.33 7.92 25.52 4.07l-5.31 20.82c-1.9 7.52-5.57 15.78-13.78 17.85a25.61 25.61 0 0 1 -10.06.12c-2.75-.46-5.24-.71-7.36-1.81z" fill="#ffc9b0"/><path d="m223.37 113.9a35.63 35.63 0 0 1 -5.32-.45l-.76-.11a21.43 21.43 0 0 1 -6.95-1.81 10.28 10.28 0 0 1 -4-3.83c-.4-.65-.75-1.3-1.11-2a38.14 38.14 0 0 1 -3.6-8.41 32.07 32.07 0 0 1 -.71-8.54c.11-5.94.81-14.64 5.45-21.58 1.75-2.61 3.64-4.15 5.77-4.72 3.73-1 6.38 2 8.5 4.39.65.73 1.27 1.42 1.86 2 5 4.47 14 7.84 24.5 3.87a1 1 0 0 1 1 .19 1 1 0 0 1 .31 1l-5.31 20.84c-2.71 10.71-7.46 16.79-14.51 18.57a20.79 20.79 0 0 1 -5.12.59zm-12.1-4.14a19.83 19.83 0 0 0 6.31 1.6l.77.12a25.2 25.2 0 0 0 9.66-.11c6.28-1.58 10.55-7.19 13.06-17.12s.14-.57 4.82-19.07a25.53 25.53 0 0 1 -24.77-4.88 27.44 27.44 0 0 1 -2-2.11c-1.94-2.19-4-4.45-6.5-3.78-1.64.43-3.15 1.71-4.61 3.89-4.36 6.51-5 14.82-5.12 20.51a30.8 30.8 0 0 0 .65 8 37 37 0 0 0 3.43 8c.34.64.67 1.26 1 1.85a8.27 8.27 0 0 0 3.27 3.12z" fill="#093f68"/><path d="m241 88.63a2.22 2.22 0 0 1 -.51-.06l-11.27-2.93a2 2 0 0 1 1-3.87l11.28 2.93a2 2 0 0 1 -.5 3.93z" fill="#093f68"/><ellipse cx="235.9" cy="92.51" fill="#093f68" rx="2.33" ry="2.33" transform="matrix(.24513818 -.96948815 .96948815 .24513818 88.38 298.53)"/><path d="m219.77 133.6c5.06-6.36 4.39-11.84-2-16.88l-.11-.09-7.18-9.16c-6.53-5.19-18.3-2.48-23.5 4.06l-16.1 20.91 32.32 21.49z" fill="#68e1fd"/><path d="m203.21 154.93a1 1 0 0 1 -.55-.17l-32.32-21.49a1 1 0 0 1 -.43-.67 1 1 0 0 1 .19-.77l16.1-20.91a20.31 20.31 0 0 1 11.85-6.8c5-1 9.8 0 13.07 2.57a1.21 1.21 0 0 1 .16.16l7.13 9.09c3.45 2.73 5.3 5.55 5.65 8.63s-.79 6.23-3.5 9.65l-16.56 20.34a1 1 0 0 1 -.79.37zm-30.87-22.73 30.66 20.39 16-19.59c2.37-3 3.38-5.66 3.09-8.18s-1.9-4.91-4.91-7.29l-.12-.09a1 1 0 0 1 -.17-.18l-7.1-9.06c-2.81-2.18-6.94-2.94-11.35-2.1a18.24 18.24 0 0 0 -10.65 6.07z" fill="#093f68"/><path d="m221.91 129.41s4.62 1.77-1.95 10.58c-4.69 6.28-13.67 6.28-13.67 6.28" fill="#68e1fd"/><path d="m206.29 147.27a1 1 0 0 1 0-2c.09 0 8.55-.09 12.87-5.88 3.41-4.58 3.49-6.91 3.23-7.89a1.76 1.76 0 0 0 -.86-1.17 1 1 0 0 1 -.53-1.33 1 1 0 0 1 1.27-.55 3.6 3.6 0 0 1 2 2.4c.68 2.37-.51 5.64-3.54 9.71-4.9 6.63-14.05 6.71-14.44 6.71z" fill="#093f68"/><path d="m268.49 157.56c-2.67-7.15-11.68-12.78-12.35-13.18l.27.16s-38.48-33-44.8-34.59c-4.17-1.08-8 .79-11 3.5-4.51 4.09-7.4 7.69-8.41 13.78a10.33 10.33 0 0 0 -.08 3.28 5.63 5.63 0 0 0 .47 1.61c2.34 5.09 7.46 2.6 10.59.14a25.27 25.27 0 0 0 4.88-4.81l40 24.58s3.53 7.6 8.49 8.64 14.24 3.06 11.94-3.11z" fill="#ffc9b0"/><path d="m264.62 162.84a42.38 42.38 0 0 1 -8.14-1.16h-.15c-4.88-1-8.33-7.48-9-8.93l-39-23.94a28.91 28.91 0 0 1 -4.51 4.27c-1.78 1.4-5.24 3.64-8.35 2.89a5.62 5.62 0 0 1 -3.76-3.4 7 7 0 0 1 -.55-1.87 11 11 0 0 1 .09-3.6c1-6.33 4.11-10.18 8.72-14.36 2.67-2.42 6.92-5 12-3.73 6.47 1.67 43.56 33.39 45.2 34.8 1.89 1.22 9.83 6.64 12.37 13.43.65 1.76.55 3.16-.31 4.17s-2.62 1.43-4.61 1.43zm-56.62-36.39a1 1 0 0 1 .52.15l40 24.57a1 1 0 0 1 .38.43c0 .08 3.38 7.16 7.79 8.09h.14c3 .64 9.32 2 10.71.35.35-.41.34-1.13 0-2.16-2.54-6.88-11.54-12.41-11.92-12.65a1 1 0 0 1 -.34-.35c-11-9.41-39-32.69-43.92-34-4.18-1.07-7.8 1.19-10.11 3.29-4.4 4-7.13 7.42-8.09 13.19a9.47 9.47 0 0 0 -.09 3 5 5 0 0 0 .4 1.34 3.66 3.66 0 0 0 2.41 2.29c2.37.57 5.44-1.57 6.65-2.52a24.81 24.81 0 0 0 4.69-4.6 1 1 0 0 1 .78-.42z" fill="#093f68"/><path d="m233.49 105.72c-2.8 0-7.17-1.25-7.7-6.21a1 1 0 0 1 2-.21c.52 4.85 6.09 4.42 6.33 4.4a1 1 0 0 1 1.08.9 1 1 0 0 1 -.9 1.09c-.3.02-.52.03-.81.03z" fill="#093f68"/><path d="m247.68 81.4-8.26-.34-1.29-6.89-2.56 6.74-10.57-.43a138.37 138.37 0 0 1 -5 17.08c-2.15 5.85-6.86 10.57-13.5 7.85-8-3.25-9.41-18-9.23-25.51a27.13 27.13 0 0 1 4.73-15.16c2.45-3.41 7.76-7.25 12.21-7.15a3.94 3.94 0 0 1 3.31 1.71c1.74-1.8 3.57-3.67 5.94-4.48a15.85 15.85 0 0 1 6.83-.25 20.2 20.2 0 0 1 14.29 9.13c4.5 7.44 3.1 17.7 3.1 17.7z" fill="#725858"/><path d="m210.2 107.2a10.8 10.8 0 0 1 -4.12-.86c-10.09-4.13-9.91-24.19-9.85-26.46a28.26 28.26 0 0 1 4.94-15.72c2.7-3.76 8.22-7.58 12.87-7.58h.19a5.27 5.27 0 0 1 3.32 1.24 15.05 15.05 0 0 1 5.57-4 16.8 16.8 0 0 1 7.27-.29 21.12 21.12 0 0 1 15 9.6c4.65 7.66 3.31 17.92 3.25 18.36a1 1 0 0 1 -1 .86l-8.26-.34a1 1 0 0 1 -.95-.81l-.63-3.39-1.29 3.4a1 1 0 0 1 -1 .65l-9.72-.4a139.47 139.47 0 0 1 -4.91 16.4c-1.53 4.16-4 7.19-7.07 8.52a8.8 8.8 0 0 1 -3.61.82zm3.8-48.62c-3.95 0-8.88 3.47-11.23 6.74a26.27 26.27 0 0 0 -4.57 14.61c-.19 7.74 1.42 21.62 8.61 24.56a7.72 7.72 0 0 0 6.19.11c2.52-1.11 4.65-3.73 6-7.39a135.89 135.89 0 0 0 5-17 1 1 0 0 1 1-.77l9.84.4 2.29-6.06a1 1 0 0 1 1.92.17l1.14 6.1 6.52.27c.21-2.61.46-10.35-3.06-16.15a19.07 19.07 0 0 0 -13.54-8.64c-2.06-.23-4.39-.49-6.4.2-2.19.74-4 2.59-5.53 4.22a1 1 0 0 1 -.83.3 1 1 0 0 1 -.75-.46 3 3 0 0 0 -2.48-1.25z" fill="#093f68"/><path d="m270.82 236h-12.92a1 1 0 0 1 0-2h12.92a1 1 0 0 1 0 2z" fill="#dfeaef"/><path d="m286.62 236.46h-3.14a1 1 0 0 1 0-2h3.14a1 1 0 0 1 0 2z" fill="#dfeaef"/><path d="m296.83 236.46h-4.57a1 1 0 0 1 0-2h4.57a1 1 0 0 1 0 2z" fill="#dfeaef"/><path d="m164.66 141.18s-10.66 14.59-11.23 23.11 8.79 11.58 19.59 14.89 14.59-4.41 25.18-18.05z" fill="#093f68"/><path d="m177.66 181a16.75 16.75 0 0 1 -4.94-.82c-10.26-3.15-20.87-6.4-20.29-15.91.53-8.71 11-23 11.42-23.65a1 1 0 0 1 1.32-.26l33.54 20a1 1 0 0 1 .47.68 1 1 0 0 1 -.19.8c-1.4 1.8-2.68 3.5-3.88 5.08-6.53 8.57-10.65 14.08-17.45 14.08zm-12.72-38.45c-2.14 3-10.08 14.78-10.52 21.85-.45 7.38 7.19 10.28 18.89 13.87 8.7 2.66 12.3-2.12 20.2-12.6 1-1.33 2.07-2.73 3.21-4.22z" fill="#093f68"/><path d="m180.4 163.18s-10.81-13.36-22.19-2.52l-9.77 32.7s-24.31-11.36-26.71-11.89-19 18.92-14.91 19 11.3-6.26 11.3-6.26 28.55 17.17 35.29 18 11.49-3.75 12.4-7.27 14.59-41.76 14.59-41.76z" fill="#ffc9b0"/><path d="m155 213.37a14.55 14.55 0 0 1 -1.71-.11c-6.39-.8-30.72-15.19-35-17.78-1.86 1.58-7.46 6-11.3 6h-.14a1.58 1.58 0 0 1 -1.47-.91c-.25-.55-1-2.23 5.68-10.43 2-2.41 8.58-10.21 11-9.67 2.22.51 20.79 9.11 25.87 11.47l9.43-31.6a1.05 1.05 0 0 1 .27-.44c3.4-3.23 7.09-4.73 11-4.49 7.22.47 12.45 6.84 12.67 7.11a1 1 0 0 1 .16 1c-.13.39-13.67 38.31-14.56 41.74-1.06 3.61-5.58 8.11-11.9 8.11zm-36.87-20.12a1 1 0 0 1 .52.15c9.81 5.9 29.73 17.23 34.89 17.88 6.08.76 10.48-3.3 11.31-6.53s12.67-36.45 14.42-41.35c-1.24-1.36-5.54-5.62-10.89-6-3.25-.21-6.36 1.06-9.28 3.76l-9.69 32.45a1 1 0 0 1 -.55.62 1 1 0 0 1 -.83 0c-9.57-4.46-24.33-11.2-26.42-11.8-2.58.67-13.71 13.94-14.41 17 3.13-.22 8.42-4.36 10.27-6a1 1 0 0 1 .65-.18z" fill="#093f68"/><path d="m156 155.64-5.62 25.63 22.73 8.88s10.3-27.16 12.07-27.42-14.11-13.4-29.18-7.09z" fill="#093f68"/><path d="m173.15 191.15a1.15 1.15 0 0 1 -.37-.06l-22.72-8.89a1 1 0 0 1 -.61-1.14l5.62-25.64a1 1 0 0 1 .59-.7c12.73-5.35 25.75 2.61 29.31 5.82 1.17 1 1.54 1.71 1.34 2.38a1.11 1.11 0 0 1 -.7.73c-1.39 1.44-6.91 14.67-11.53 26.86a1 1 0 0 1 -.53.56.92.92 0 0 1 -.4.08zm-21.57-10.5 21 8.21c7.3-19.17 10.23-24.74 11.54-26.4-2.2-2.37-14.9-10.9-27.2-6.09z" fill="#093f68"/><path d="m208 128.45a.94.94 0 0 1 -.51-.14l-6.49-3.88a1 1 0 1 1 1-1.71l6.49 3.88a1 1 0 0 1 -.51 1.85z" fill="#093f68"/><circle cx="270.62" cy="127.44" fill="#fff" r="17.81"/><g fill="#093f68"><path d="m270.62 146.25a18.81 18.81 0 1 1 18.81-18.81 18.83 18.83 0 0 1 -18.81 18.81zm0-35.61a16.81 16.81 0 1 0 16.81 16.8 16.83 16.83 0 0 0 -16.81-16.8z"/><path d="m256.45 139.21a1.27 1.27 0 0 1 -.28 0 1 1 0 0 1 -.69-1.23c.09-.3 2.15-7.15 14.41-11.32.6-1.53 2.85-8.61-2.66-16.22a1 1 0 1 1 1.61-1.17c6.7 9.24 3.13 18.21 2.53 18.87a1 1 0 0 1 -.44.28c-11.52 3.79-13.5 10-13.52 10.11a1 1 0 0 1 -.96.68z"/><path d="m287.44 134.29c-11.58 0-17.31-5.91-17.55-6.16a1 1 0 0 1 1.46-1.38c.08.09 5.45 5.54 16.09 5.54a1 1 0 0 1 0 2z"/><path d="m253.83 132.16a1 1 0 0 1 -.58-.19 1 1 0 0 1 -.23-1.39c7.85-10.84 18-9 18.38-8.89a1 1 0 0 1 .79 1.17 1 1 0 0 1 -1.18.79c-.37-.07-9.3-1.66-16.37 8.1a1 1 0 0 1 -.81.41z"/><path d="m253.81 124a1 1 0 0 1 -.76-1.65c8.52-9.94 18.09-6.87 18.5-6.73a1 1 0 1 1 -.64 1.89c-.38-.12-8.74-2.72-16.34 6.14a1 1 0 0 1 -.76.35z"/><path d="m283.15 140.45a19.41 19.41 0 0 1 -13.56-4.95 16.55 16.55 0 0 1 -3.91-5.29 1 1 0 0 1 .55-1.3 1 1 0 0 1 1.31.55c.15.37 3.84 9 15.59 9h.62a1 1 0 0 1 1 1 1 1 0 0 1 -1 1z"/><path d="m274.79 145.33h-.19c-10.28-2-14.64-11.21-14.82-11.6a1 1 0 1 1 1.82-.84c0 .08 4.13 8.66 13.38 10.48a1 1 0 0 1 -.19 2z"/><path d="m275.19 131.57a.9.9 0 0 1 -.42-.1 1 1 0 0 1 -.48-1.33c0-.11 5.12-11 1.21-19.11a1 1 0 1 1 1.8-.87c4.33 9-1 20.36-1.2 20.84a1 1 0 0 1 -.91.57z"/><path d="m281.6 133.73a1.12 1.12 0 0 1 -.47-.11 1 1 0 0 1 -.42-1.35c5-9.47 2.68-15.81 2.65-15.87a1 1 0 0 1 .59-1.29 1 1 0 0 1 1.28.58c.11.28 2.65 7.18-2.75 17.5a1 1 0 0 1 -.88.54z"/></g><path d="m133.21 232.64c3.48-.85 6.79-2.79 10.11-4.28a44.3 44.3 0 0 1 9.17-3c6.11-1.28 11.19 6.68 17.76 6.86 7.65.21 13.82-5.74 22.2-3.66 5.47 1.35 10.26 5.35 15.89 5.43 4.84.06 9.16-2.78 13.36-5.19s9.2-4.51 13.76-2.88c3.76 1.34 6.24 4.81 9.82 6.47s6.67-2.81 10-3.72a11.38 11.38 0 0 1 3.86-.26 25.83 25.83 0 0 1 11.92 4c2.75 1.75 8 5.36 8.2 8.82 0 .53-.64 4.41-1.51 4.41q-22.69 0-45.38 0h-84c-15 0-30.32-.82-45.19 0 .42-3.52 2.68-7.53 4.82-10.3a12.24 12.24 0 0 1 8.09-5c4.43-.44 8.56 2.38 13 2.66a13.92 13.92 0 0 0 4.12-.36z" fill="#ffbc0e"/><path d="m103.17 246.67a1 1 0 0 1 -.72-.31 1 1 0 0 1 -.27-.8c.56-4.73 4-9.47 5-10.8a13.17 13.17 0 0 1 8.82-5.36c2.69-.27 5.22.55 7.68 1.35a22.88 22.88 0 0 0 5.49 1.3 12.81 12.81 0 0 0 3.82-.38 36.52 36.52 0 0 0 7.14-2.9c.94-.45 1.87-.91 2.8-1.33a46.12 46.12 0 0 1 9.38-3.05c3.64-.77 6.87 1.34 10 3.37 2.56 1.67 5.2 3.39 8 3.47 3.1.09 6-.91 9-2 4.1-1.43 8.35-2.92 13.4-1.66a36.11 36.11 0 0 1 6.62 2.59c3 1.42 5.92 2.77 9 2.81 4.07.05 7.86-2.16 11.54-4.3l1.31-.76c3.77-2.16 9.38-4.82 14.59-2.95a19.67 19.67 0 0 1 5.64 3.57 20.68 20.68 0 0 0 4.27 2.93c1.58.73 3.1-.16 5.4-1.71a14 14 0 0 1 3.88-2.06 12.5 12.5 0 0 1 4.2-.3 26.73 26.73 0 0 1 12.37 4.13c5.68 3.61 8.52 6.75 8.66 9.6 0 .5-.43 3.92-1.46 5a1.41 1.41 0 0 1 -1 .47h-129.37c-4.88 0-9.89-.09-14.74-.17-10-.18-20.4-.37-30.39.22zm15.64-2.4c5 0 9.95.09 14.85.18s9.84.17 14.7.17h129a12.11 12.11 0 0 0 .82-3.38c-.08-1.45-1.48-4-7.74-8a24.69 24.69 0 0 0 -11.44-3.83 10.49 10.49 0 0 0 -3.52.23 12.91 12.91 0 0 0 -3.29 1.8c-2.18 1.46-4.64 3.13-7.36 1.86a22.89 22.89 0 0 1 -4.69-3.18 17.81 17.81 0 0 0 -5-3.25c-4.43-1.58-9.5.84-12.93 2.81l-1.3.75c-3.91 2.28-8 4.62-12.57 4.57-3.55-.05-6.76-1.55-9.85-3a35.35 35.35 0 0 0 -6.26-2.46c-4.48-1.11-8.26.21-12.26 1.61-3.07 1.07-6.24 2.17-9.72 2.08s-6.25-2-9-3.79-5.66-3.68-8.49-3.09a44.16 44.16 0 0 0 -9 2.92c-.91.41-1.82.85-2.74 1.3a38 38 0 0 1 -7.54 3 14.58 14.58 0 0 1 -4.48.43 24.56 24.56 0 0 1 -6-1.39c-2.36-.77-4.59-1.49-6.86-1.26a11.19 11.19 0 0 0 -7.39 4.59 24.25 24.25 0 0 0 -4.41 8.63c4.8-.21 9.66-.3 14.47-.3z" fill="#093f68"/><path d="m179.08 239.06a1 1 0 0 1 -.44-1.9 12.58 12.58 0 0 1 5.36-1.16 1 1 0 0 1 0 2h-.11a10.07 10.07 0 0 0 -4.32 1 1 1 0 0 1 -.49.06z" fill="#093f68"/><path d="m155 232.6a1 1 0 0 1 -.33 0 6.09 6.09 0 0 0 -2.54-.3 1 1 0 0 1 -1.09-.9 1 1 0 0 1 .9-1.09 8.07 8.07 0 0 1 3.38.4 1 1 0 0 1 -.32 1.94z" fill="#093f68"/><path d="m232.53 235.2a1 1 0 0 1 -.22-2 21.9 21.9 0 0 1 5.29-.53 1 1 0 0 1 1 1 1 1 0 0 1 -1 1 20 20 0 0 0 -4.82.48.76.76 0 0 1 -.25.05z" fill="#093f68"/><path d="m142.33 236.61a1 1 0 0 1 -.35-1.94 14.66 14.66 0 0 1 3.92-.88 1 1 0 0 1 1.08.92 1 1 0 0 1 -.92 1.08 12.27 12.27 0 0 0 -3.38.76 1.12 1.12 0 0 1 -.35.06z" fill="#093f68"/><path d="m114.38 238.18a1 1 0 0 1 -.85-.47 1 1 0 0 1 .32-1.38 6.57 6.57 0 0 1 3.41-1 1 1 0 0 1 1 1 1 1 0 0 1 -1 1 4.36 4.36 0 0 0 -2.3.66 1 1 0 0 1 -.58.19z" fill="#093f68"/><path d="m243.4 94.63a5.67 5.67 0 0 1 -7 3.91c-3-.85-7.78-5.07-6.93-8.09s7-3.68 10-2.83a5.67 5.67 0 0 1 3.93 7.01z" fill="#fff"/><path d="m237.94 99.76a6.76 6.76 0 0 1 -1.82-.25c-3.25-.92-8.7-5.5-7.62-9.33s8-4.45 11.26-3.52a6.68 6.68 0 0 1 -1.82 13.1zm-1.27-11.48c-2.7 0-5.79.83-6.24 2.44-.65 2.29 3.59 6.11 6.24 6.86a4.68 4.68 0 0 0 2.54-9 9.67 9.67 0 0 0 -2.54-.3z" fill="#093f68"/><path d="m228.41 90.31-5.28-2.22" fill="#fff"/><path d="m228.41 91.31a.91.91 0 0 1 -.39-.08l-5.28-2.23a1 1 0 0 1 .77-1.84l5.29 2.22a1 1 0 0 1 -.39 1.92z" fill="#093f68"/><path d="m224.59 90.63s-1.63-10.26-6.77-4.3-1.7 11.78 4 13.63" fill="#ffc9b0"/><path d="m221.84 101a1 1 0 0 1 -.3 0 10.15 10.15 0 0 1 -6.94-6.57c-.56-2-.59-5.12 2.46-8.67 1.56-1.8 3.07-2.5 4.51-2.09 3 .84 3.91 6.28 4 6.9a1 1 0 0 1 -2 .31c-.32-2-1.33-4.93-2.58-5.29-.81-.23-1.88.83-2.44 1.48-2 2.27-2.67 4.63-2.06 6.82a8.2 8.2 0 0 0 5.66 5.11 1 1 0 0 1 -.31 1.95z" fill="#093f68"/></svg>